<?xml version="1.0" encoding="UTF-8" standalone="no"?>
<!-- Created with Inkscape (http://www.inkscape.org/) -->

<svg
   xmlns:dc="http://purl.org/dc/elements/1.1/"
   xmlns:cc="http://creativecommons.org/ns#"
   xmlns:rdf="http://www.w3.org/1999/02/22-rdf-syntax-ns#"
   xmlns:svg="http://www.w3.org/2000/svg"
   xmlns="http://www.w3.org/2000/svg"
   xmlns:sodipodi="http://sodipodi.sourceforge.net/DTD/sodipodi-0.dtd"
   xmlns:inkscape="http://www.inkscape.org/namespaces/inkscape"
   id="svg3029"
   version="1.1"
   inkscape:version="0.47 r22583"
   width="765"
   height="990"
   xml:space="preserve"
   sodipodi:docname="gauge-cht.eps"><metadata
     id="metadata3035"><rdf:RDF><cc:Work
         rdf:about=""><dc:format>image/svg+xml</dc:format><dc:type
           rdf:resource="http://purl.org/dc/dcmitype/StillImage" /><dc:title></dc:title></cc:Work></rdf:RDF></metadata><defs
     id="defs3033"><inkscape:perspective
       sodipodi:type="inkscape:persp3d"
       inkscape:vp_x="0 : 0.5 : 1"
       inkscape:vp_y="0 : 1000 : 0"
       inkscape:vp_z="1 : 0.5 : 1"
       inkscape:persp3d-origin="0.5 : 0.33333333 : 1"
       id="perspective3037" /><clipPath
       clipPathUnits="userSpaceOnUse"
       id="clipPath3047"><path
         d="M 0,2536.03 0,0 l 2536.02,0 0,2536.03 -2536.02,0 z"
         id="path3049" /></clipPath></defs><sodipodi:namedview
     pagecolor="#ffffff"
     bordercolor="#666666"
     borderopacity="1"
     objecttolerance="10"
     gridtolerance="10"
     guidetolerance="10"
     inkscape:pageopacity="0"
     inkscape:pageshadow="2"
     inkscape:window-width="640"
     inkscape:window-height="481"
     id="namedview3031"
     showgrid="false"
     inkscape:zoom="0.23838384"
     inkscape:cx="382.5"
     inkscape:cy="495"
     inkscape:window-x="0"
     inkscape:window-y="0"
     inkscape:window-maximized="0"
     inkscape:current-layer="g3039" /><g
     id="g3039"
     inkscape:groupmode="layer"
     inkscape:label="ink_ext_XXXXXX"
     transform="matrix(1.25,0,0,-1.25,0,990)"><g
       id="g3041"
       transform="scale(0.1,0.1)"><g
         id="g3043"><g
           id="g3045"
           clip-path="url(#clipPath3047)"><path
             d="M 2536.02,1268.01 C 2536.02,567.738 1968.31,0 1268,0 567.715,0 0,567.738 0,1268.01 c 0,700.3 567.715,1268.02 1268,1268.02 700.31,0 1268.02,-567.72 1268.02,-1268.02"
             style="fill:#100f0d;fill-opacity:1;fill-rule:nonzero;stroke:none"
             id="path3051" /><path
             d="m 1692.26,1226.49 75.9375,0 0,19.8711 -75.9375,0 0,-19.8711 z"
             style="fill:#ffffff;fill-opacity:1;fill-rule:nonzero;stroke:none"
             id="path3053" /><path
             d="m 1720.3,1201.72 19.8594,0 0,70.75 -19.8594,0 0,-70.75 z"
             style="fill:#ffffff;fill-opacity:1;fill-rule:nonzero;stroke:none"
             id="path3055" /><path
             d="m 617.633,1634.91 c 58.695,195.61 162.637,374.07 303.09,520.4"
             style="fill:none;stroke:#f5f014;stroke-opacity:1;stroke-width:248.293;stroke-linecap:butt;stroke-linejoin:miter;stroke-miterlimit:4;stroke-dasharray:none"
             id="path3057" /><path
             d="M 796.777,517.828 C 746.344,589.691 703.383,666.672 668.551,747.582"
             style="fill:none;stroke:#26813a;stroke-opacity:1;stroke-width:248.293;stroke-linecap:butt;stroke-linejoin:miter;stroke-miterlimit:4;stroke-dasharray:none"
             id="path3059" /><path
             d="M 668.066,748.699 C 586.996,937.391 551.879,1143.25 565.742,1348.71"
             style="fill:none;stroke:#26813a;stroke-opacity:1;stroke-width:248.293;stroke-linecap:butt;stroke-linejoin:miter;stroke-miterlimit:4;stroke-dasharray:none"
             id="path3061" /><path
             d="m 566.105,1354.2 c 13.739,191.68 69.711,377.75 163.813,544.41"
             style="fill:none;stroke:#f5f014;stroke-opacity:1;stroke-width:248.293;stroke-linecap:butt;stroke-linejoin:miter;stroke-miterlimit:4;stroke-dasharray:none"
             id="path3063" /><path
             d="m 443.176,1387.94 248.976,-18.75 -2.871,-47.28 -248.976,18.79 2.871,47.24"
             style="fill:#ffffff;fill-opacity:1;fill-rule:nonzero;stroke:none"
             id="path3065" /><path
             d="m 583.523,1868.47 286.688,-133.14 c 3.754,-1.74 5.371,-6.17 3.633,-9.92 l -11.114,-23.96 c -1.738,-3.77 -6.183,-5.38 -9.921,-3.66 l -286.704,133.13 c -3.757,1.74 -5.351,6.19 -3.632,9.92 l 11.132,23.97 c 1.754,3.76 6.18,5.37 9.918,3.66"
             style="fill:#ffffff;fill-opacity:1;fill-rule:nonzero;stroke:none"
             id="path3067" /><path
             d="M 845.254,2247.22 1092.33,2050.1 c 3.26,-2.55 3.78,-7.23 1.2,-10.49 l -16.49,-20.67 c -2.55,-3.23 -7.28,-3.76 -10.51,-1.17 l -247.081,197.11 c -3.254,2.57 -3.781,7.26 -1.211,10.48 l 16.489,20.68 c 2.562,3.22 7.277,3.76 10.527,1.18"
             style="fill:#ed1d24;fill-opacity:1;fill-rule:nonzero;stroke:none"
             id="path3069" /><path
             d="m 757.68,2160.49 204.261,-143.59 -26.648,-39.16 -204.262,143.63 26.649,39.12"
             style="fill:#ffffff;fill-opacity:1;fill-rule:nonzero;stroke:none"
             id="path3071" /><path
             d="m 473.34,989.988 307.816,71.692 c 4.043,0.93 8.043,-1.53 9.016,-5.56 l 6,-25.78 c 0.89,-3.96 -1.598,-8.01 -5.613,-8.95 L 482.734,949.699 c -4.082,-0.969 -8.062,1.571 -9.007,5.551 l -6.008,25.77 c -0.907,3.98 1.578,8.011 5.621,8.968"
             style="fill:#ffffff;fill-opacity:1;fill-rule:nonzero;stroke:none"
             id="path3073" /><path
             d="m 881.156,245.199 215.684,231.09 c 2.81,2.949 7.52,3.191 10.57,0.359 l 19.33,-18.066 c 2.98,-2.781 3.18,-7.551 0.33,-10.543 L 911.426,216.961 c -2.848,-3.07 -7.574,-3.191 -10.586,-0.359 l -19.317,18.019 c -3.011,2.789 -3.195,7.52 -0.367,10.578"
             style="fill:#ffffff;fill-opacity:1;fill-rule:nonzero;stroke:none"
             id="path3075" /><path
             d="m 549.516,711.73 229.742,97.75 19.199,-43.32 -229.766,-97.711 -19.175,43.281"
             style="fill:#ffffff;fill-opacity:1;fill-rule:nonzero;stroke:none"
             id="path3077" /><path
             d="M 654.973,517.949 919.23,691.398 c 3.43,2.223 8.04,1.332 10.344,-2.097 l 14.547,-22.192 c 2.164,-3.347 1.293,-8.039 -2.203,-10.3 L 677.688,483.32 c -3.5,-2.269 -8.086,-1.3 -10.368,2.141 l -14.488,22.07 c -2.266,3.469 -1.355,8.11 2.141,10.418"
             style="fill:#ffffff;fill-opacity:1;fill-rule:nonzero;stroke:none"
             id="path3079" /><path
             d="M 725.289,403.301 923.773,554.559 950.367,519.891 751.84,368.672 725.289,403.301"
             style="fill:#ffffff;fill-opacity:1;fill-rule:nonzero;stroke:none"
             id="path3081" /><path
             d="M 803.551,316.859 983.969,489.219 1012.5,459.148 832.035,286.84 803.551,316.859"
             style="fill:#ffffff;fill-opacity:1;fill-rule:nonzero;stroke:none"
             id="path3083" /><g
             id="g3085"
             transform="scale(10,10)"><text
               transform="matrix(1,0,0,-1,7.78594,119.828)"
               id="text3087"><tspan
                 style="fill:#ffffff;fill-opacity:1;fill-rule:nonzero;stroke:none;font-family:Arial;font-variant:normal;font-weight:bold;font-size:19.8991;writing-mode:lr;-inkscape-font-specification:Arial-BoldMT"
                 x="0 7.95751903"
                 y="0"
                 sodipodi:role="line"
                 id="tspan3089">°C</tspan></text>
</g><path
             d="m 1165.18,1547.09 -109.24,0 c -3.03,0.45 0,0 -8.02,2.75 -8.2,2.83 -6.16,8.63 -6.16,11.07 0,13.34 0.91,16.57 10.44,24.45 31.61,26.07 26.17,22.47 60.62,47.6 15.5,11.36 27.99,21.02 27.99,35.33 0,13.33 -2.81,20.12 -39.73,20.12 -26.71,0 -37.3,-4.81 -37.3,-20.12 0,-1.7 -0.61,-4.21 -0.61,-5.95 0,-2.95 -2.26,-6.44 -12.2,-6.44 -10.81,0 -13.05,3.49 -13.05,10.16 0,4.2 -0.33,5.09 -0.33,9.38 0,27.24 18.11,32.81 63.47,32.81 55.37,0 68.64,0 68.64,-39.16 0,-30.59 -24.08,-40.32 -42.43,-52.63 -35.2,-23.62 -36.49,-24.96 -62.6,-49.61 l 70.98,0 c 0,10.35 15.79,8.31 29.04,8.31 8.12,0 11.92,1.55 11.92,-14.25 0,-9.86 -2.4,-13.82 -11.43,-13.82"
             style="fill:#ffffff;fill-opacity:1;fill-rule:nonzero;stroke:none"
             id="path3091" /><path
             d="m 1165.18,1547.09 -109.24,0 c -3.03,0.45 0,0 -8.02,2.75 -8.2,2.83 -6.16,8.63 -6.16,11.07 0,13.34 0.91,16.57 10.44,24.45 31.61,26.07 26.17,22.47 60.62,47.6 15.5,11.36 27.99,21.02 27.99,35.33 0,13.33 -2.81,20.12 -39.73,20.12 -26.71,0 -37.3,-4.81 -37.3,-20.12 0,-1.7 -0.61,-4.21 -0.61,-5.95 0,-2.95 -2.26,-6.44 -12.2,-6.44 -10.81,0 -13.05,3.49 -13.05,10.16 0,4.2 -0.33,5.09 -0.33,9.38 0,27.24 18.11,32.81 63.47,32.81 55.37,0 68.64,0 68.64,-39.16 0,-30.59 -24.08,-40.32 -42.43,-52.63 -35.2,-23.62 -36.49,-24.96 -62.6,-49.61 l 70.98,0 c 0,10.35 15.79,8.31 29.04,8.31 8.12,0 11.92,1.55 11.92,-14.25 0,-9.86 -2.4,-13.82 -11.43,-13.82 z"
             style="fill:none;stroke:#ffffff;stroke-opacity:1;stroke-width:10.3455;stroke-linecap:butt;stroke-linejoin:miter;stroke-miterlimit:10;stroke-dasharray:none"
             id="path3093" /><path
             d="m 1301.08,1564.81 0,121.14 -78.46,0 0,-121.14 78.46,0 z m 0,143.44 c 14.68,0 26.72,-10.02 26.72,-22.3 l 0,-121.14 c 0,-12.47 -11.51,-22.33 -26.72,-22.33 l -78.46,0 c -15.23,0 -26.69,9.86 -26.69,22.33 l 0,121.14 c 0,12.28 12,22.3 26.69,22.3 l 78.46,0"
             style="fill:#ffffff;fill-opacity:1;fill-rule:nonzero;stroke:none"
             id="path3095" /><path
             d="m 1301.08,1564.81 0,121.14 -78.46,0 0,-121.14 78.46,0 z m 0,143.44 c 14.68,0 26.72,-10.02 26.72,-22.3 l 0,-121.14 c 0,-12.47 -11.51,-22.33 -26.72,-22.33 l -78.46,0 c -15.23,0 -26.69,9.86 -26.69,22.33 l 0,121.14 c 0,12.28 12,22.3 26.69,22.3 l 78.46,0 z"
             style="fill:none;stroke:#ffffff;stroke-opacity:1;stroke-width:5.17276;stroke-linecap:butt;stroke-linejoin:miter;stroke-miterlimit:4;stroke-dasharray:none"
             id="path3097" /><path
             d="m 970.391,1544.5 0,126.86 -19.703,0 c -10.567,0 -20.305,2.91 -20.305,12.3 0,9.44 11.679,25.64 21.195,26.65 l 59.542,0 -0.04,-165.28 -40.689,-0.53"
             style="fill:#ffffff;fill-opacity:1;fill-rule:nonzero;stroke:none"
             id="path3099" /><path
             d="m 881.199,966.789 0,126.871 -19.699,0 c -10.547,0 -20.328,2.91 -20.328,12.33 0,9.42 11.68,25.6 21.215,26.63 l 59.527,0 -0.039,-165.288 -40.676,-0.543"
             style="fill:#ffffff;fill-opacity:1;fill-rule:nonzero;stroke:none"
             id="path3101" /><path
             d="m 1052.69,987.102 0,121.148 -78.444,0 0,-121.148 78.444,0 z m 0,143.458 c 14.69,0 26.73,-10.02 26.73,-22.31 l 0,-121.148 c 0,-12.454 -11.5,-22.321 -26.73,-22.321 l -78.444,0 c -15.23,0 -26.711,9.867 -26.711,22.321 l 0,121.148 c 0,12.29 12.008,22.31 26.711,22.31 l 78.444,0"
             style="fill:#ffffff;fill-opacity:1;fill-rule:nonzero;stroke:none"
             id="path3103" /><path
             d="m 1052.69,987.102 0,121.148 -78.444,0 0,-121.148 78.444,0 z m 0,143.458 c 14.69,0 26.73,-10.02 26.73,-22.31 l 0,-121.148 c 0,-12.454 -11.5,-22.321 -26.73,-22.321 l -78.444,0 c -15.23,0 -26.711,9.867 -26.711,22.321 l 0,121.148 c 0,12.29 12.008,22.31 26.711,22.31 l 78.444,0 z"
             style="fill:none;stroke:#ffffff;stroke-opacity:1;stroke-width:5.17276;stroke-linecap:butt;stroke-linejoin:miter;stroke-miterlimit:4;stroke-dasharray:none"
             id="path3105" /><path
             d="m 1207.3,987.102 0,121.148 -78.45,0 0,-121.148 78.45,0 z m 0,143.458 c 14.68,0 26.72,-10.02 26.72,-22.31 l 0,-121.148 c 0,-12.454 -11.48,-22.321 -26.72,-22.321 l -78.45,0 c -15.24,0 -26.7,9.867 -26.7,22.321 l 0,121.148 c 0,12.29 12.01,22.31 26.7,22.31 l 78.45,0"
             style="fill:#ffffff;fill-opacity:1;fill-rule:nonzero;stroke:none"
             id="path3107" /><path
             d="m 1207.3,987.102 0,121.148 -78.45,0 0,-121.148 78.45,0 z m 0,143.458 c 14.68,0 26.72,-10.02 26.72,-22.31 l 0,-121.148 c 0,-12.454 -11.48,-22.321 -26.72,-22.321 l -78.45,0 c -15.24,0 -26.7,9.867 -26.7,22.321 l 0,121.148 c 0,12.29 12.01,22.31 26.7,22.31 l 78.45,0 z"
             style="fill:none;stroke:#ffffff;stroke-opacity:1;stroke-width:5.17276;stroke-linecap:butt;stroke-linejoin:miter;stroke-miterlimit:4;stroke-dasharray:none"
             id="path3109" /><path
             d="m 1236.14,340.059 52.82,0 -0.85,39.8 -92.38,-0.679 0,90.269 131.05,0.66 0,-31.16 -105.23,0 0.69,-24.859 76.76,0 c 10.53,0 12.19,-0.281 17.65,-0.281 10.92,0 10.49,-10.227 10.49,-17.34 l 0,-62.957 c 0,-6.34 0,-15.84 -7.11,-20.93 -8.44,-6.141 -8.52,-6.961 -20.69,-9.023 l -102.92,0 -0.35,51.05 38.86,0 0,-11.679"
             style="fill:#ffffff;fill-opacity:1;fill-rule:nonzero;stroke:none"
             id="path3111" /><path
             d="m 1459.58,327.172 0,121.68 -79.77,0 0,-121.68 79.77,0 z m 0,144.109 c 14.91,0 27.13,-10.109 27.13,-22.429 l 0,-121.68 c 0,-12.531 -11.7,-22.434 -27.13,-22.434 l -79.77,0 c -15.48,0 -27.16,9.903 -27.16,22.434 l 0,121.68 c 0,12.32 12.2,22.429 27.16,22.429 l 79.77,0"
             style="fill:#ffffff;fill-opacity:1;fill-rule:nonzero;stroke:none"
             id="path3113" /><path
             d="m 1459.58,327.172 0,121.68 -79.77,0 0,-121.68 79.77,0 z m 0,144.109 c 14.91,0 27.13,-10.109 27.13,-22.429 l 0,-121.68 c 0,-12.531 -11.7,-22.434 -27.13,-22.434 l -79.77,0 c -15.48,0 -27.16,9.903 -27.16,22.434 l 0,121.68 c 0,12.32 12.2,22.429 27.16,22.429 l 79.77,0 z"
             style="fill:none;stroke:#ffffff;stroke-opacity:1;stroke-width:5.17276;stroke-linecap:butt;stroke-linejoin:miter;stroke-miterlimit:4;stroke-dasharray:none"
             id="path3115" /><g
             id="g3117"
             transform="scale(10,10)"><text
               transform="matrix(1,0,0,-0.78435064,158.734,165.763)"
               id="text3119"><tspan
                 style="fill:#ffffff;fill-opacity:1;fill-rule:nonzero;stroke:none;font-family:MS33558;font-variant:normal;font-weight:normal;font-size:24.86502733;writing-mode:lr;-inkscape-font-specification:MS33558"
                 x="0 19.02542023 38.97275077"
                 y="0"
                 sodipodi:role="line"
                 id="tspan3121">CHT</tspan></text>
</g><path
             d="m 1740.43,1705.94 c -8.48,5.28 -16.47,4.7 -24.18,-1.95 -0.75,-0.97 -1.75,-1.95 -2.25,-2.55 -14.21,-14.67 -28.68,-20.34 -43.38,-16.62 -14.97,3.72 -27.19,12.72 -36.91,27.18 -5.48,8.43 -9.21,17.22 -10.96,26.61 -1.75,9.39 -2,18.78 -0.5,27.97 1.25,8.42 4.48,17.42 9.71,26.81 5.24,9.58 11.97,17.41 19.96,23.47 7.97,6.27 16.95,9.39 26.92,9.78 10.22,0.4 20.7,-4.31 31.42,-14.28 5.24,-4.11 10.97,-5.67 17.45,-4.29 5.74,0.97 9.72,3.9 11.97,8.4 2.24,4.69 1.49,8.8 -2.25,12.52 -0.5,0.59 -0.75,0.78 -0.75,0.78 -8.72,8.22 -19.68,14.67 -33.4,19.17 -13.47,4.5 -27.17,5.49 -40.64,3.13 -23.69,-4.3 -41.89,-15.07 -54.36,-32.27 -12.46,-17.22 -19.19,-36.19 -20.69,-56.73 -1.25,-20.55 2.73,-40.3 12.47,-59.27 9.47,-18.98 24.44,-32.48 44.62,-40.5 17.71,-6.84 35.41,-7.83 53.61,-2.73 17.96,4.89 32.66,13.29 43.63,25.23 0.25,0.19 0.25,0.39 0.5,0.39 0.25,0.19 0.5,0.58 0.75,0.78 l 1,1.17 c 5.98,6.66 4.73,12.52 -3.74,17.8 z m 54.86,-48.51 c 10.22,0.2 15.71,4.5 16.71,13.31 l 0,78.64 97.98,0 0,-78.64 c 1.75,-8.81 7.48,-13.31 17.2,-13.31 9.74,0 15.47,4.31 17.21,13.31 l 0,169.01 c -1.74,9 -7.47,13.5 -17.21,13.5 -9.72,0 -15.45,-4.5 -17.2,-13.5 l 0,-63.18 -97.98,0 0,63.18 c -1,8.8 -6.49,13.3 -16.71,13.5 -9.97,0.19 -15.95,-4.31 -17.7,-13.5 l 0,-169.01 c 1.75,-9 7.73,-13.5 17.7,-13.31 z m 259.83,0.2 c 10.22,-0.2 16.2,4.3 17.93,13.3 l 0,155.32 44.65,0 c 11.21,0.79 16.95,5.08 16.95,13.5 -0.25,8.22 -5.74,12.71 -16.95,13.5 l -123.68,0 c -11.22,-0.79 -16.95,-5.28 -16.95,-13.5 0,-8.21 5.73,-12.71 16.95,-13.5 l 44.88,0 0,-155.32 c 0.75,-8.8 6.23,-13.1 16.22,-13.3 z"
             style="fill:none;stroke:#ffffff;stroke-opacity:1;stroke-width:10.3455;stroke-linecap:butt;stroke-linejoin:miter;stroke-miterlimit:10;stroke-dasharray:none"
             id="path3123" /><path
             d="m 1176.27,1975.34 0,126.85 -19.7,0 c -10.57,0 -20.31,2.91 -20.31,12.31 0,9.43 11.68,25.64 21.2,26.65 l 59.55,0 -0.05,-165.29 -40.69,-0.52"
             style="fill:#ffffff;fill-opacity:1;fill-rule:nonzero;stroke:none"
             id="path3125" /><path
             d="m 1453.86,2011.46 52.81,0 -0.84,39.81 -92.38,-0.66 0,90.25 131.06,0.65 0,-31.15 -105.24,0 0.69,-24.84 76.76,0 c 10.53,0 12.18,-0.3 17.64,-0.3 10.94,0 10.51,-10.2 10.51,-17.34 l 0,-62.96 c 0,-6.35 0,-15.84 -7.11,-20.94 -8.45,-6.14 -8.53,-6.94 -20.69,-8.98 l -102.93,0 -0.35,51.02 38.86,0 0,-11.68"
             style="fill:#ffffff;fill-opacity:1;fill-rule:nonzero;stroke:none"
             id="path3127" /><g
             id="g3129"
             transform="scale(10,10)"><text
               transform="matrix(1,0,0,-0.74357182,122.902,197.379)"
               id="text3131"><tspan
                 style="fill:#ffffff;fill-opacity:1;fill-rule:nonzero;stroke:#ffffff;stroke-opacity:1;stroke-width:1.03455;stroke-linecap:butt;stroke-linejoin:miter;stroke-miterlimit:10;stroke-dasharray:none;font-family:MicrosoftSansSerif;font-variant:normal;font-weight:normal;font-size:31.04568964;writing-mode:lr;-inkscape-font-specification:MicrosoftSansSerif"
                 x="0"
                 y="0"
                 id="tspan3133">3</tspan></text>
</g></g></g></g></g></svg>