<?xml version="1.0" encoding="UTF-8" standalone="no"?>
<!-- Created with Inkscape (http://www.inkscape.org/) -->

<svg
   xmlns:dc="http://purl.org/dc/elements/1.1/"
   xmlns:cc="http://creativecommons.org/ns#"
   xmlns:rdf="http://www.w3.org/1999/02/22-rdf-syntax-ns#"
   xmlns:svg="http://www.w3.org/2000/svg"
   xmlns="http://www.w3.org/2000/svg"
   xmlns:sodipodi="http://sodipodi.sourceforge.net/DTD/sodipodi-0.dtd"
   xmlns:inkscape="http://www.inkscape.org/namespaces/inkscape"
   id="svg3181"
   version="1.1"
   inkscape:version="0.47 r22583"
   width="765"
   height="990"
   xml:space="preserve"
   sodipodi:docname="gauge-oil-pressure.eps"><metadata
     id="metadata3187"><rdf:RDF><cc:Work
         rdf:about=""><dc:format>image/svg+xml</dc:format><dc:type
           rdf:resource="http://purl.org/dc/dcmitype/StillImage" /><dc:title></dc:title></cc:Work></rdf:RDF></metadata><defs
     id="defs3185"><inkscape:perspective
       sodipodi:type="inkscape:persp3d"
       inkscape:vp_x="0 : 0.5 : 1"
       inkscape:vp_y="0 : 1000 : 0"
       inkscape:vp_z="1 : 0.5 : 1"
       inkscape:persp3d-origin="0.5 : 0.33333333 : 1"
       id="perspective3189" /><clipPath
       clipPathUnits="userSpaceOnUse"
       id="clipPath3199"><path
         d="M 0,2536.03 0,0 l 2536.02,0 0,2536.03 -2536.02,0 z"
         id="path3201" /></clipPath></defs><sodipodi:namedview
     pagecolor="#ffffff"
     bordercolor="#666666"
     borderopacity="1"
     objecttolerance="10"
     gridtolerance="10"
     guidetolerance="10"
     inkscape:pageopacity="0"
     inkscape:pageshadow="2"
     inkscape:window-width="1592"
     inkscape:window-height="844"
     id="namedview3183"
     showgrid="false"
     inkscape:zoom="3.8141414"
     inkscape:cx="51.599103"
     inkscape:cy="188.29807"
     inkscape:window-x="0"
     inkscape:window-y="0"
     inkscape:window-maximized="1"
     inkscape:current-layer="g3191" /><g
     id="g3191"
     inkscape:groupmode="layer"
     inkscape:label="ink_ext_XXXXXX"
     transform="matrix(1.25,0,0,-1.25,0,990)"><g
       id="g3193"
       transform="scale(0.1,0.1)"><g
         id="g3195"><g
           id="g3197"
           clip-path="url(#clipPath3199)"><path
             d="M 2536.02,1268.01 C 2536.02,567.738 1968.31,0 1268,0 567.715,0 0,567.738 0,1268.01 c 0,700.3 567.715,1268.02 1268,1268.02 700.31,0 1268.02,-567.72 1268.02,-1268.02"
             style="fill:#100f0d;fill-opacity:1;fill-rule:nonzero;stroke:none"
             id="path3203" /><path
             d="m 1629.96,1761.72 71,-25.27 0,34.34 -63.34,20.78 -7.66,-29.85 z m 90.87,-109.24 191.1,0 78.48,93.02 -110.2,-28.58 -26.24,22.28 -133.14,0 0,-9.82 1.52,-0.54 -1.52,-4.29 0,-72.07 z m 200.32,-19.86 -220.19,0 0,82.75 -94.75,33.72 17.45,67.96 97.17,-31.87 0,-26.12 62.89,0 0,31.55 -32.6,0 0,19.87 85.1,0 0,-19.87 -32.64,0 0,-31.55 57.67,0 23.96,-20.33 119.17,30.91 -0.2,0.56 53.41,18.99 24.64,-19.67 -12.39,-15.52 -16,12.78 -28.13,-10.24 -104.56,-123.92"
             style="fill:#ffffff;fill-opacity:1;fill-rule:nonzero;stroke:none"
             id="path3205" /><path
             d="m 2099.55,1717.87 c -8.54,-56.46 -41.14,-110.45 0.54,-110.75 48.99,-0.37 10.41,56.48 -0.54,110.75"
             style="fill:#ffffff;fill-opacity:1;fill-rule:nonzero;stroke:none"
             id="path3207" /><path
             d="m 997.203,1737.46 0,28.7 139.147,0 0,-22.43 c -11.49,-8.59 -23.17,-20.9 -35.04,-36.96 -11.88,-16.06 -20.92,-33.12 -27.15,-51.2 -6.23,-18.07 -9.29,-34.22 -9.19,-48.45 l -39.24,0 c 0.67,22.29 6.73,45.02 18.17,68.19 11.44,23.17 26.71,43.89 45.82,62.15 l -92.517,0"
             style="fill:#ffffff;fill-opacity:1;fill-rule:nonzero;stroke:none"
             id="path3209" /><path
             d="m 737.742,1586.21 -228.269,68.5 c 63.648,212.08 177.824,408.09 330.183,566.84 L 1011.61,2056.52 C 885.289,1924.9 790.586,1762.27 737.742,1586.21"
             style="fill:#ffffff;fill-opacity:1;fill-rule:nonzero;stroke:none"
             id="path3211" /><path
             d="m 704.57,438.922 c -54.797,78.09 -101.781,162.258 -139.652,250.18 l 218.887,94.296 C 815.238,710.422 854.219,640.582 899.668,575.809 L 704.57,438.922"
             style="fill:#f5f014;fill-opacity:1;fill-rule:nonzero;stroke:none"
             id="path3213" /><path
             d="M 564.395,690.328 C 476.516,894.852 437.996,1120.64 453.008,1343.29 l 237.793,-16.03 C 678.32,1142.12 710.328,954.398 783.367,784.41 L 564.395,690.328"
             style="fill:#26813a;fill-opacity:1;fill-rule:nonzero;stroke:none"
             id="path3215" /><path
             d="m 691.129,1332.23 -237.727,17.03 c 14.856,207.32 76.524,412.22 178.332,592.56 L 839.281,1824.66 C 754.707,1674.85 703.477,1504.57 691.129,1332.23"
             style="fill:#f5f014;fill-opacity:1;fill-rule:nonzero;stroke:none"
             id="path3217" /><path
             d="M 860.98,252.91 C 804.465,309.27 752.449,370.98 706.391,436.34 L 901.215,573.621 C 939.371,519.469 982.457,468.352 1029.26,421.68 L 860.98,252.91"
             style="fill:#ffffff;fill-opacity:1;fill-rule:nonzero;stroke:none"
             id="path3219" /><path
             d="m 852.5,272.859 241.05,250.68 c 3.15,3.27 8.33,3.34 11.55,0.133 l 20.58,-20.512 c 3.23,-3.191 3.28,-8.449 0.13,-11.711 L 884.766,240.762 c -3.164,-3.25 -8.328,-3.332 -11.551,-0.141 l -20.598,20.508 c -3.215,3.23 -3.258,8.473 -0.117,11.73"
             style="fill:#ffffff;fill-opacity:1;fill-rule:nonzero;stroke:none"
             id="path3221" /><path
             d="M 699.18,460.898 980,664.309 c 3.668,2.632 8.762,1.773 11.367,-1.969 l 16.703,-23.871 c 2.62,-3.719 1.76,-8.93 -1.9,-11.547 L 725.355,423.52 c -3.66,-2.661 -8.753,-1.821 -11.363,1.96 l -16.711,23.879 c -2.629,3.723 -1.761,8.871 1.899,11.539"
             style="fill:#ed1d24;fill-opacity:1;fill-rule:nonzero;stroke:none"
             id="path3223" /><path
             d="m 563.473,713.75 315.769,140.672 c 4.121,1.816 8.934,-0.113 10.735,-4.301 l 11.562,-26.859 c 1.816,-4.184 -0.07,-9.063 -4.211,-10.922 L 581.578,671.672 c -4.133,-1.801 -8.941,0.09 -10.75,4.308 l -11.558,26.872 c -1.786,4.199 0.082,9.058 4.203,10.898"
             style="fill:#ffffff;fill-opacity:1;fill-rule:nonzero;stroke:none"
             id="path3225" /><path
             d="m 455.215,1374.38 237.969,-18.68 -2.75,-47.12 -237.977,18.72 2.758,47.08"
             style="fill:#ffffff;fill-opacity:1;fill-rule:nonzero;stroke:none"
             id="path3227" /><path
             d="m 90.9766,1214.45 c 0,-11.06 1.7539,-19.27 5.2382,-24.56 4.9062,-7.52 11.4062,-11.28 19.5232,-11.28 6.254,0 11.567,2.64 15.973,8.01 4.398,5.31 6.578,13.73 6.578,25.22 0,12.21 -2.203,21 -6.641,26.4 -4.418,5.43 -10.089,8.11 -17,8.11 -6.789,0 -12.421,-2.63 -16.9175,-7.91 -4.5078,-5.26 -6.7539,-13.24 -6.7539,-23.99 z m -1.8164,-55.78 -26.2579,0 0,147.59 28.2735,0 0,-53.15 c 8.7344,9.92 19.0622,14.9 31.0122,14.9 13.011,0 23.792,-4.73 32.32,-14.12 8.527,-9.47 12.789,-22.98 12.789,-40.64 0,-18.28 -4.348,-32.34 -13.039,-42.22 -8.688,-9.84 -19.254,-14.78 -31.668,-14.78 -6.11,0 -12.121,1.51 -18.063,4.61"
             style="fill:#ffffff;fill-opacity:1;fill-rule:nonzero;stroke:none"
             id="path3229" /><path
             d="m 249.047,1210.02 c -3.625,-1.22 -9.375,-2.67 -17.223,-4.33 -7.847,-1.68 -12.992,-3.34 -15.41,-4.94 -3.687,-2.62 -5.531,-5.94 -5.531,-9.96 0,-3.97 1.488,-7.38 4.429,-10.27 2.95,-2.88 6.715,-4.33 11.282,-4.33 5.101,0 9.949,1.67 14.597,5.02 3.418,2.57 5.661,5.66 6.747,9.39 0.73,2.4 1.109,7 1.109,13.77 l 0,5.65 z m -37.856,22.94 -25.679,4.63 c 2.886,10.35 7.847,18.01 14.902,22.97 7.047,4.98 17.516,7.45 31.41,7.45 12.614,0 22.02,-1.49 28.192,-4.48 6.172,-2.99 10.515,-6.77 13.046,-11.39 2.504,-4.59 3.774,-13.04 3.774,-25.32 l -0.309,-33.02 c 0,-9.41 0.442,-16.32 1.356,-20.78 0.906,-4.47 2.597,-9.24 5.09,-14.35 l -27.996,0 c -0.735,1.85 -1.637,4.68 -2.719,8.36 -0.481,1.66 -0.797,2.76 -0.996,3.31 -4.836,-4.69 -10.012,-8.22 -15.52,-10.58 -5.492,-2.35 -11.367,-3.51 -17.597,-3.51 -11.016,0 -19.704,2.97 -26.043,8.96 -6.336,5.98 -9.508,13.54 -9.508,22.63 0,6.08 1.437,11.46 4.336,16.17 2.875,4.74 6.918,8.36 12.125,10.88 5.203,2.52 12.715,4.72 22.507,6.6 13.223,2.46 22.376,4.78 27.485,6.94 l 0,2.82 c 0,5.47 -1.344,9.34 -4.047,11.61 -2.676,2.36 -7.742,3.49 -15.18,3.49 -5.047,0 -8.976,-0.99 -11.793,-2.95 -2.808,-1.99 -5.097,-5.46 -6.836,-10.44"
             style="fill:#ffffff;fill-opacity:1;fill-rule:nonzero;stroke:none"
             id="path3231" /><path
             d="m 331.801,1158.67 -28.293,0 0,106.93 26.262,0 0,-15.22 c 4.511,7.21 8.554,11.92 12.14,14.19 3.602,2.28 7.668,3.44 12.235,3.44 6.453,0 12.652,-1.78 18.621,-5.34 L 364.004,1238 c -4.758,3.07 -9.195,4.63 -13.277,4.63 -3.957,0 -7.325,-1.09 -10.079,-3.27 -2.742,-2.18 -4.906,-6.12 -6.492,-11.84 -1.578,-5.68 -2.355,-17.67 -2.355,-35.82 l 0,-33.03"
             style="fill:#ffffff;fill-opacity:1;fill-rule:nonzero;stroke:none"
             id="path3233" /><path
             d="M 639.535,1940.65 914.57,1787.11 c 3.594,-1.99 4.887,-6.52 2.879,-10.13 l -12.832,-23 c -2.012,-3.59 -6.543,-4.88 -10.137,-2.87 l -275.042,153.52 c -3.61,2 -4.868,6.55 -2.876,10.14 l 12.836,22.99 c 2.004,3.6 6.536,4.88 10.137,2.89"
             style="fill:#ed1d24;fill-opacity:1;fill-rule:nonzero;stroke:none"
             id="path3235" /><path
             d="m 839.84,1261.94 52.617,0 -0.852,39.67 -92.054,-0.66 0,89.93 130.601,0.65 0,-31.05 -104.863,0 0.688,-24.74 76.484,0 c 10.504,0 12.141,-0.3 17.59,-0.3 10.887,0 10.445,-10.17 10.445,-17.28 l 0,-62.74 c 0,-6.32 0,-15.8 -7.058,-20.88 -8.418,-6.11 -8.52,-6.9 -20.626,-8.93 l -102.574,0 -0.34,50.84 38.731,0 0,-11.66"
             style="fill:#ffffff;fill-opacity:1;fill-rule:nonzero;stroke:none"
             id="path3237" /><path
             d="m 1186.82,1918.88 0,126.45 -19.63,0 c -10.52,0 -20.26,2.87 -20.26,12.26 0,9.41 11.65,25.5 21.15,26.56 l 59.31,0 -0.04,-164.72 -40.53,-0.55"
             style="fill:#ffffff;fill-opacity:1;fill-rule:nonzero;stroke:none"
             id="path3239" /><path
             d="m 1357.75,1939.14 0,120.72 -78.24,0 0,-120.72 78.24,0 z m 0,142.95 c 14.61,0 26.6,-9.98 26.6,-22.23 l 0,-120.72 c 0,-12.41 -11.48,-22.23 -26.6,-22.23 l -78.24,0 c -15.14,0 -26.58,9.82 -26.58,22.23 l 0,120.72 c 0,12.25 11.96,22.23 26.58,22.23 l 78.24,0"
             style="fill:#ffffff;fill-opacity:1;fill-rule:nonzero;stroke:none"
             id="path3241" /><path
             d="m 1281.99,1941.62 73.28,0 0,115.76 -73.28,0 0,-115.76 z m 78.24,-4.96 -83.2,0 0,125.68 83.2,0 0,-125.68 z m -80.72,142.95 c -13.28,0 -24.09,-8.86 -24.09,-19.75 l 0,-120.72 c 0,-11.07 10.58,-19.75 24.09,-19.75 l 78.24,0 c 13.52,0 24.12,8.68 24.12,19.75 l 0,120.72 c 0,10.89 -10.82,19.75 -24.12,19.75 l -78.24,0 z m 78.24,-165.18 -78.24,0 c -16.3,0 -29.06,10.85 -29.06,24.71 l 0,120.72 c 0,13.63 13.04,24.71 29.06,24.71 l 78.24,0 c 16.03,0 29.08,-11.08 29.08,-24.71 l 0,-120.72 c 0,-13.86 -12.77,-24.71 -29.08,-24.71"
             style="fill:#ffffff;fill-opacity:1;fill-rule:nonzero;stroke:none"
             id="path3243" /><path
             d="m 1063.31,838.422 -108.869,0 c -2.992,0.457 0,0 -7.98,2.738 -8.164,2.82 -6.164,8.578 -6.164,11.02 0,13.32 0.933,16.539 10.441,24.379 31.485,25.98 26.047,22.39 60.402,47.453 15.43,11.297 27.87,20.937 27.87,35.16 0,13.277 -2.78,20.039 -39.572,20.039 -26.602,0 -32.93,-7.352 -32.93,-22.621 0,-1.66 -0.61,-4.16 -0.61,-5.918 0,-2.902 -2.242,-6.402 -12.128,-6.402 -10.79,0 -13.012,3.5 -13.012,10.14 0,4.172 -0.344,5.059 -0.344,9.328 0,27.133 13.82,35.274 59.004,35.274 55.162,0 68.392,0 68.392,-39 0,-30.524 -24,-40.192 -42.29,-52.473 -35.071,-23.551 -36.348,-24.859 -62.368,-49.437 l 70.738,0 c 0,10.32 15.72,8.296 28.92,8.296 8.1,0 11.89,1.543 11.89,-14.218 0,-9.821 -2.4,-13.758 -11.39,-13.758"
             style="fill:#ffffff;fill-opacity:1;fill-rule:nonzero;stroke:none"
             id="path3245" /><path
             d="m 999.438,984.172 c 34.542,0 44.532,-5.613 44.532,-25 0,-17.281 -15.2,-28.402 -29.9,-39.16 -27.027,-19.723 -29.359,-21.66 -44.515,-34.293 l -15.66,-12.989 c -7.989,-6.589 -8.629,-8.121 -8.629,-20.55 0,-0.489 -0.051,-1.09 -0.114,-1.739 -0.257,-2.589 -0.343,-3.461 2.93,-4.582 4.297,-1.488 5.633,-2.097 6.309,-2.41 l 0.804,-0.121 108.115,0.051 c 4.81,0 6.43,0 6.43,8.801 0,7.629 -1,9.07 -1.12,9.211 0.01,-0.051 -0.48,0.078 -2.17,0.078 l -3.64,-0.028 c -1.89,0 -3.84,0.028 -5.78,0.071 -1.87,0.039 -3.74,0.078 -5.56,0.078 -12.62,0 -12.62,-2.36 -12.62,-3.488 l 0,-4.973 -88.182,0 9.945,9.402 c 25.075,23.688 27.121,25.617 62.137,49.129 2.74,1.84 5.6,3.621 8.49,5.418 16.25,10.113 31.6,19.66 31.6,42.934 0,32.937 -6.27,34.039 -63.422,34.039 -46.527,0 -54.035,-8.93 -54.035,-30.313 0,-1.988 0.082,-3.187 0.16,-4.386 0.094,-1.364 0.18,-2.711 0.18,-4.942 0,-3.769 0,-5.18 8.047,-5.18 5.933,0 7.171,1.418 7.183,1.43 -0.019,1.121 0.152,2.449 0.34,3.762 0.117,0.777 0.25,1.558 0.25,2.168 0,19.859 10.625,27.582 37.895,27.582 z m 63.872,-150.711 -108.869,0 c -2.379,0.301 -2.933,0.391 -4.187,0.949 -0.57,0.27 -1.731,0.789 -5.41,2.051 -10.696,3.711 -9.856,12.168 -9.574,14.961 0.062,15.226 1.503,20.058 12.308,28.969 l 15.621,12.961 c 15.371,12.808 17.735,14.769 45.011,34.679 15.6,11.41 25.83,19.75 25.83,31.141 0,9.719 0,15.078 -34.602,15.078 -26.016,0 -27.961,-6.988 -27.961,-17.66 0,-1.008 -0.165,-2.289 -0.356,-3.59 -0.113,-0.809 -0.258,-1.641 -0.258,-2.328 0,-3.41 -1.664,-11.363 -17.093,-11.363 -12.43,0 -17.977,4.652 -17.977,15.101 0,1.93 -0.078,3.102 -0.156,4.281 -0.094,1.368 -0.188,2.758 -0.188,5.047 0,33.832 22.481,40.232 63.969,40.232 54.872,0 73.352,0 73.352,-43.958 0,-28.793 -19.27,-40.782 -36.29,-51.371 -2.78,-1.743 -5.55,-3.442 -8.19,-5.219 -30.142,-20.242 -34.974,-23.801 -52.63,-40.363 l 54.15,0 c 3.44,8.461 15.88,8.461 21.66,8.461 1.89,0 3.83,-0.04 5.77,-0.071 1.87,-0.039 3.75,-0.09 5.57,-0.09 l 3.64,0.051 c 11.05,0 13.22,-7.051 13.22,-19.23 0,-9.258 -1.95,-18.719 -16.36,-18.719"
             style="fill:#ffffff;fill-opacity:1;fill-rule:nonzero;stroke:none"
             id="path3247" /><path
             d="m 1292.67,403.09 0,121.269 -79.46,0 0,-121.269 79.46,0 z m 0,143.609 c 14.88,0 27.03,-10.058 27.03,-22.34 l 0,-121.269 c 0,-12.5 -11.6,-22.34 -27.03,-22.34 l -79.46,0 c -15.44,0 -27.06,9.84 -27.06,22.34 l 0,121.269 c 0,12.282 12.16,22.34 27.06,22.34 l 79.46,0"
             style="fill:#ffffff;fill-opacity:1;fill-rule:nonzero;stroke:none"
             id="path3249" /><path
             d="m 1215.69,405.57 74.5,0 0,116.301 -74.5,0 0,-116.301 z m 79.46,-4.961 -84.42,0 0,126.231 84.42,0 0,-126.231 z m -81.94,143.61 c -13.55,0 -24.58,-8.918 -24.58,-19.86 l 0,-121.269 c 0,-11.32 10.57,-19.86 24.58,-19.86 l 79.46,0 c 14,0 24.55,8.54 24.55,19.86 l 0,121.269 c 0,10.942 -11.01,19.86 -24.55,19.86 l -79.46,0 z m 79.46,-165.949 -79.46,0 c -16.56,0 -29.54,10.902 -29.54,24.82 l 0,121.269 c 0,13.692 13.25,24.821 29.54,24.821 l 79.46,0 c 16.27,0 29.51,-11.129 29.51,-24.821 l 0,-121.269 c 0,-13.918 -12.96,-24.82 -29.51,-24.82"
             style="fill:#ffffff;fill-opacity:1;fill-rule:nonzero;stroke:none"
             id="path3251" /><path
             d="m 1159.09,630.41 0,121.262 -79.48,0 0,-121.262 79.48,0 z m 0,143.629 c 14.88,0 27.06,-10.09 27.06,-22.367 l 0,-121.262 c 0,-12.48 -11.66,-22.351 -27.06,-22.351 l -79.48,0 c -15.42,0 -27.06,9.871 -27.06,22.351 l 0,121.262 c 0,12.277 12.16,22.367 27.06,22.367 l 79.48,0"
             style="fill:#ffffff;fill-opacity:1;fill-rule:nonzero;stroke:none"
             id="path3253" /><path
             d="m 1082.09,632.891 74.52,0 0,116.3 -74.52,0 0,-116.3 z m 79.48,-4.961 -84.44,0 0,126.218 84.44,0 0,-126.218 z m -81.96,143.629 c -13.56,0 -24.58,-8.918 -24.58,-19.887 l 0,-121.262 c 0,-11.14 10.8,-19.871 24.58,-19.871 l 79.48,0 c 13.78,0 24.58,8.731 24.58,19.871 l 0,121.262 c 0,10.969 -11.03,19.887 -24.58,19.887 l -79.48,0 z m 79.48,-165.977 -79.48,0 c -16.57,0 -29.54,10.898 -29.54,24.828 l 0,121.262 c 0,13.699 13.25,24.848 29.54,24.848 l 79.48,0 c 16.29,0 29.54,-11.149 29.54,-24.848 l 0,-121.262 c 0,-13.93 -12.98,-24.828 -29.54,-24.828"
             style="fill:#ffffff;fill-opacity:1;fill-rule:nonzero;stroke:none"
             id="path3255" /><path
             d="m 1374.57,708.41 0,55.399 -79.5,0 0,-55.399 79.5,0 z m 0,65.629 c 14.86,0 27.05,-4.641 27.05,-10.23 l 0,-55.399 c 0,-5.691 -11.64,-10.211 -27.05,-10.211 l -79.5,0 c -15.43,0 -27.06,4.52 -27.06,10.211 l 0,55.399 c 0,5.589 12.16,10.23 27.06,10.23 l 79.5,0"
             style="fill:#ffffff;fill-opacity:1;fill-rule:nonzero;stroke:none"
             id="path3257" /><path
             d="m 1297.55,710.891 74.53,0 0,50.441 -74.53,0 0,-50.441 z m 79.5,-4.961 -84.46,0 0,60.359 84.46,0 0,-60.359 z m -81.98,65.629 c -14.77,0 -24.58,-4.668 -24.58,-7.75 l 0,-55.399 c 0,-3.219 9.36,-7.73 24.58,-7.73 l 79.5,0 c 15.22,0 24.57,4.511 24.57,7.73 l 0,55.399 c 0,3.082 -9.81,7.75 -24.57,7.75 l -79.5,0 z m 79.5,-75.84 -79.5,0 c -17.39,0 -29.54,5.222 -29.54,12.691 l 0,55.399 c 0,8.261 15.22,12.711 29.54,12.711 l 79.5,0 c 14.31,0 29.53,-4.45 29.53,-12.711 l 0,-55.399 c 0,-7.469 -12.14,-12.691 -29.53,-12.691"
             style="fill:#ffffff;fill-opacity:1;fill-rule:nonzero;stroke:none"
             id="path3259" /><path
             d="m 1374.57,620.539 0,67.621 -79.5,0 0,-67.621 79.5,0 z m 0,80.102 c 14.86,0 27.05,-5.59 27.05,-12.481 l 0,-67.621 c 0,-6.957 -11.64,-12.48 -27.05,-12.48 l -79.5,0 c -15.43,0 -27.06,5.523 -27.06,12.48 l 0,67.621 c 0,6.891 12.16,12.481 27.06,12.481 l 79.5,0"
             style="fill:#ffffff;fill-opacity:1;fill-rule:nonzero;stroke:none"
             id="path3261" /><path
             d="m 1297.55,623.02 74.53,0 0,62.66 -74.53,0 0,-62.66 z m 79.5,-4.961 -84.46,0 0,72.582 84.46,0 0,-72.582 z m -81.98,80.101 c -14.06,0 -24.58,-5.281 -24.58,-10 l 0,-67.621 c 0,-4.828 9.89,-10 24.58,-10 l 79.5,0 c 14.69,0 24.57,5.172 24.57,10 l 0,67.621 c 0,4.719 -10.51,10 -24.57,10 l -79.5,0 z m 79.5,-92.578 -79.5,0 c -17.12,0 -29.54,6.277 -29.54,14.957 l 0,67.621 c 0,8.539 12.7,14.961 29.54,14.961 l 79.5,0 c 16.56,0 29.53,-6.57 29.53,-14.961 l 0,-67.621 c 0,-8.68 -12.43,-14.957 -29.53,-14.957"
             style="fill:#ffffff;fill-opacity:1;fill-rule:nonzero;stroke:none"
             id="path3263" /><path
             d="m 1247.81,629.07 c 0,-11.59 -9.43,-21.011 -21.03,-21.011 -11.61,0 -21.04,9.421 -21.04,21.011 0,11.602 9.43,21.051 21.04,21.051 11.6,0 21.03,-9.449 21.03,-21.051"
             style="fill:#ffffff;fill-opacity:1;fill-rule:nonzero;stroke:none"
             id="path3265" /><path
             d="m 1692.26,1226.49 75.9375,0 0,19.8711 -75.9375,0 0,-19.8711 z"
             style="fill:#ffffff;fill-opacity:1;fill-rule:nonzero;stroke:none"
             id="path3267" /><path
             d="m 1720.3,1201.72 19.8594,0 0,70.75 -19.8594,0 0,-70.75 z"
             style="fill:#ffffff;fill-opacity:1;fill-rule:nonzero;stroke:none"
             id="path3269" /><path
             d="m 865.785,2238.43 228.895,-216.4 c 2.99,-2.81 3.13,-7.51 0.29,-10.52 l -18.08,-19.13 c -2.84,-3.01 -7.55,-3.14 -10.55,-0.3 l -228.879,216.39 c -2.996,2.82 -3.129,7.53 -0.305,10.53 l 18.086,19.12 c 2.84,3 7.563,3.15 10.543,0.31"
             style="fill:#ffffff;fill-opacity:1;fill-rule:nonzero;stroke:none"
             id="path3271" /></g></g></g></g></svg>