<?xml version="1.0" encoding="UTF-8" standalone="no"?>
<!-- Created with Inkscape (http://www.inkscape.org/) -->

<svg
   xmlns:dc="http://purl.org/dc/elements/1.1/"
   xmlns:cc="http://creativecommons.org/ns#"
   xmlns:rdf="http://www.w3.org/1999/02/22-rdf-syntax-ns#"
   xmlns:svg="http://www.w3.org/2000/svg"
   xmlns="http://www.w3.org/2000/svg"
   xmlns:sodipodi="http://sodipodi.sourceforge.net/DTD/sodipodi-0.dtd"
   xmlns:inkscape="http://www.inkscape.org/namespaces/inkscape"
   id="svg3273"
   version="1.1"
   inkscape:version="0.47 r22583"
   width="765"
   height="990"
   xml:space="preserve"
   sodipodi:docname="gauge-oil-temp.eps"><metadata
     id="metadata3279"><rdf:RDF><cc:Work
         rdf:about=""><dc:format>image/svg+xml</dc:format><dc:type
           rdf:resource="http://purl.org/dc/dcmitype/StillImage" /><dc:title></dc:title></cc:Work></rdf:RDF></metadata><defs
     id="defs3277"><inkscape:perspective
       sodipodi:type="inkscape:persp3d"
       inkscape:vp_x="0 : 0.5 : 1"
       inkscape:vp_y="0 : 1000 : 0"
       inkscape:vp_z="1 : 0.5 : 1"
       inkscape:persp3d-origin="0.5 : 0.33333333 : 1"
       id="perspective3281" /><clipPath
       clipPathUnits="userSpaceOnUse"
       id="clipPath3291"><path
         d="M 0,2536.03 0,0 l 2536.02,0 0,2536.03 -2536.02,0 z"
         id="path3293" /></clipPath></defs><sodipodi:namedview
     pagecolor="#ffffff"
     bordercolor="#666666"
     borderopacity="1"
     objecttolerance="10"
     gridtolerance="10"
     guidetolerance="10"
     inkscape:pageopacity="0"
     inkscape:pageshadow="2"
     inkscape:window-width="1592"
     inkscape:window-height="844"
     id="namedview3275"
     showgrid="false"
     inkscape:zoom="0.95353535"
     inkscape:cx="-211.0467"
     inkscape:cy="236.48765"
     inkscape:window-x="0"
     inkscape:window-y="0"
     inkscape:window-maximized="1"
     inkscape:current-layer="g3285" /><g
     id="g3283"
     inkscape:groupmode="layer"
     inkscape:label="ink_ext_XXXXXX"
     transform="matrix(1.25,0,0,-1.25,0,990)"><g
       id="g3285"
       transform="scale(0.1,0.1)"><g
         id="g3287"><g
           id="g3289"
           clip-path="url(#clipPath3291)"><path
             d="M 2536.02,1268.01 C 2536.02,567.738 1968.31,0 1268,0 567.715,0 0,567.738 0,1268.01 c 0,700.3 567.715,1268.02 1268,1268.02 700.31,0 1268.02,-567.72 1268.02,-1268.02"
             style="fill:#100f0d;fill-opacity:1;fill-rule:nonzero;stroke:none"
             id="path3295" /><path
             d="m 1692.26,1226.49 75.9375,0 0,19.8711 -75.9375,0 0,-19.8711 z"
             style="fill:#ffffff;fill-opacity:1;fill-rule:nonzero;stroke:none"
             id="path3297" /><path
             d="m 1720.3,1201.72 19.8594,0 0,70.75 -19.8594,0 0,-70.75 z"
             style="fill:#ffffff;fill-opacity:1;fill-rule:nonzero;stroke:none"
             id="path3299" /><path
             d="m 620.078,1634.84 c 59.125,200.82 164.274,366.89 285.992,523.76"
             style="fill:none;stroke:#ffffff;stroke-opacity:1;stroke-width:243.36;stroke-linecap:butt;stroke-linejoin:miter;stroke-miterlimit:4;stroke-dasharray:none"
             id="path3301" /><path
             d="m 1710.49,1709.61 -62.32,22.21 8.52,33.31 54.64,-17.94 0,-92.22 140.04,0 69.17,81.97 -92.21,-23.91 -17.08,14.52 -99.05,0 m 207.49,10.23 26.46,9.41 8.53,-6.83 m -186.98,-11.95 0,34.15 m -22.19,0 44.39,0"
             style="fill:none;stroke:#ffffff;stroke-opacity:1;stroke-width:20.28;stroke-linecap:square;stroke-linejoin:miter;stroke-miterlimit:4;stroke-dasharray:none"
             id="path3303" /><path
             d="m 1975.99,1706.25 c -5.81,-38.43 -28.01,-75.2 0.35,-75.41 33.36,-0.25 7.1,38.46 -0.35,75.41"
             style="fill:#ffffff;fill-opacity:1;fill-rule:nonzero;stroke:none"
             id="path3305" /><path
             d="M 990.953,332.641 C 864.379,445.34 756.996,579.852 680.898,731.898"
             style="fill:none;stroke:#f5f014;stroke-opacity:1;stroke-width:243.36;stroke-linecap:butt;stroke-linejoin:miter;stroke-miterlimit:4;stroke-dasharray:none"
             id="path3307" /><path
             d="M 670.129,747.879 C 589.023,932.891 553.148,1135.02 565.527,1337.09"
             style="fill:none;stroke:#26813a;stroke-opacity:1;stroke-width:243.36;stroke-linecap:butt;stroke-linejoin:miter;stroke-miterlimit:4;stroke-dasharray:none"
             id="path3309" /><path
             d="m 563.129,1322.04 c 13.273,181.79 60.91,361.95 141.633,525.39"
             style="fill:none;stroke:#f5f014;stroke-opacity:1;stroke-width:243.36;stroke-linecap:butt;stroke-linejoin:miter;stroke-miterlimit:4;stroke-dasharray:none"
             id="path3311" /><path
             d="m 602.266,1915.37 299.289,-153.8 c 3.89,-1.96 5.593,-6.98 3.8,-11.14 l -11.617,-26.78 c -1.8,-4.17 -6.457,-5.94 -10.343,-3.97 L 579.996,1872.7"
             style="fill:#ed1d24;fill-opacity:1;fill-rule:nonzero;stroke:none"
             id="path3313" /><g
             id="g3315"
             transform="scale(10,10)"><text
               transform="matrix(1,0,0,-1,12.0828,120.566)"
               id="text3317"><tspan
                 style="fill:#ffffff;fill-opacity:1;fill-rule:nonzero;stroke:none;font-family:Arial;font-variant:normal;font-weight:bold;font-size:19.5037;writing-mode:lr;-inkscape-font-specification:Arial-BoldMT"
                 x="0 7.79980001"
                 y="0"
                 sodipodi:role="line"
                 id="tspan3319">°C</tspan></text>
</g><path
             d="m 1786.74,2051.42 0,-197.8"
             style="fill:none;stroke:#ffffff;stroke-opacity:1;stroke-width:20.28;stroke-linecap:square;stroke-linejoin:miter;stroke-miterlimit:4;stroke-dasharray:none"
             id="path3321" /><path
             d="m 1825.36,2030.67 -30.32,0"
             style="fill:none;stroke:#ffffff;stroke-opacity:1;stroke-width:20.28;stroke-linecap:square;stroke-linejoin:miter;stroke-miterlimit:4;stroke-dasharray:none"
             id="path3323" /><path
             d="m 1825.36,1991.66 -30.32,0"
             style="fill:none;stroke:#ffffff;stroke-opacity:1;stroke-width:20.28;stroke-linecap:square;stroke-linejoin:miter;stroke-miterlimit:4;stroke-dasharray:none"
             id="path3325" /><path
             d="m 1825.36,1952.64 -30.32,0"
             style="fill:none;stroke:#ffffff;stroke-opacity:1;stroke-width:20.28;stroke-linecap:square;stroke-linejoin:miter;stroke-miterlimit:4;stroke-dasharray:none"
             id="path3327" /><path
             d="m 1815.37,1855.14 c 0,-16.16 -13.1,-29.26 -29.26,-29.26 -16.16,0 -29.25,13.1 -29.25,29.26 0,16.16 13.09,29.25 29.25,29.25 16.16,0 29.26,-13.09 29.26,-29.25"
             style="fill:#ffffff;fill-opacity:1;fill-rule:nonzero;stroke:none"
             id="path3329" /><path
             d="m 1249.26,1979.95 51.76,0 -0.84,39.03 -90.55,-0.66 0,88.46 128.47,0.66 0,-30.56 -103.14,0 0.68,-24.32 75.23,0 c 10.34,0 11.93,-0.3 17.29,-0.3 10.72,0 10.28,-10.03 10.28,-17.02 l 0,-61.69 c 0,-6.21 0,-15.53 -6.95,-20.54 -8.27,-5.99 -8.37,-6.81 -20.28,-8.8 l -100.88,0 -0.35,50.02 38.09,0 0,-11.45"
             style="fill:#ffffff;fill-opacity:1;fill-rule:nonzero;stroke:none"
             id="path3331" /><path
             d="m 1468.24,1967.33 0,119.26 -78.17,0 0,-119.26 78.17,0 z m 0,141.24 c 14.63,0 26.61,-9.89 26.61,-21.98 l 0,-119.26 c 0,-12.3 -11.46,-21.99 -26.61,-21.99 l -78.17,0 c -15.17,0 -26.62,9.69 -26.62,21.99 l 0,119.26 c 0,12.09 11.96,21.98 26.62,21.98 l 78.17,0"
             style="fill:#ffffff;fill-opacity:1;fill-rule:nonzero;stroke:none"
             id="path3333" /><path
             d="m 1468.24,1967.33 0,119.26 -78.17,0 0,-119.26 78.17,0 z m 0,141.24 c 14.63,0 26.61,-9.89 26.61,-21.98 l 0,-119.26 c 0,-12.3 -11.46,-21.99 -26.61,-21.99 l -78.17,0 c -15.17,0 -26.62,9.69 -26.62,21.99 l 0,119.26 c 0,12.09 11.96,21.98 26.62,21.98 l 78.17,0 z"
             style="fill:none;stroke:#ffffff;stroke-opacity:1;stroke-width:5.06999;stroke-linecap:butt;stroke-linejoin:miter;stroke-miterlimit:4;stroke-dasharray:none"
             id="path3335" /><path
             d="m 1095.39,1465.82 -107.085,0 c -2.95,0.44 0,0 -7.852,2.69 -8.043,2.78 -6.051,8.45 -6.051,10.86 0,13.06 0.903,16.23 10.25,23.95 30.978,25.56 25.638,22.04 59.418,46.68 15.19,11.1 27.41,20.58 27.41,34.59 0,13.07 -2.73,19.73 -38.92,19.73 -26.17,0 -36.568,-4.71 -36.568,-19.73 0,-1.64 -0.597,-4.1 -0.597,-5.81 0,-2.89 -2.215,-6.32 -11.942,-6.32 -10.605,0 -12.793,3.43 -12.793,9.96 0,4.12 -0.34,5 -0.34,9.2 0,26.68 17.77,32.15 62.22,32.15 54.27,0 67.26,0 67.26,-38.36 0,-30.01 -23.58,-39.53 -41.58,-51.61 -34.5,-23.16 -35.76,-24.44 -61.349,-48.63 l 69.579,0 c 0,10.15 15.47,8.15 28.46,8.15 7.96,0 11.69,1.53 11.69,-13.95 0,-9.67 -2.37,-13.55 -11.21,-13.55"
             style="fill:#ffffff;fill-opacity:1;fill-rule:nonzero;stroke:none"
             id="path3337" /><path
             d="m 1095.39,1465.82 -107.085,0 c -2.95,0.44 0,0 -7.852,2.69 -8.043,2.78 -6.051,8.45 -6.051,10.86 0,13.06 0.903,16.23 10.25,23.95 30.978,25.56 25.638,22.04 59.418,46.68 15.19,11.1 27.41,20.58 27.41,34.59 0,13.07 -2.73,19.73 -38.92,19.73 -26.17,0 -36.568,-4.71 -36.568,-19.73 0,-1.64 -0.597,-4.1 -0.597,-5.81 0,-2.89 -2.215,-6.32 -11.942,-6.32 -10.605,0 -12.793,3.43 -12.793,9.96 0,4.12 -0.34,5 -0.34,9.2 0,26.68 17.77,32.15 62.22,32.15 54.27,0 67.26,0 67.26,-38.36 0,-30.01 -23.58,-39.53 -41.58,-51.61 -34.5,-23.16 -35.76,-24.44 -61.349,-48.63 l 69.579,0 c 0,10.15 15.47,8.15 28.46,8.15 7.96,0 11.69,1.53 11.69,-13.95 0,-9.67 -2.37,-13.55 -11.21,-13.55 z"
             style="fill:none;stroke:#ffffff;stroke-opacity:1;stroke-width:10.14;stroke-linecap:butt;stroke-linejoin:miter;stroke-miterlimit:10;stroke-dasharray:none"
             id="path3339" /><path
             d="m 1228.58,1483.18 0,118.73 -76.9,0 0,-118.73 76.9,0 z m 0,140.59 c 14.39,0 26.2,-9.83 26.2,-21.86 l 0,-118.73 c 0,-12.22 -11.28,-21.87 -26.2,-21.87 l -76.9,0 c -14.93,0 -26.16,9.65 -26.16,21.87 l 0,118.73 c 0,12.03 11.77,21.86 26.16,21.86 l 76.9,0"
             style="fill:#ffffff;fill-opacity:1;fill-rule:nonzero;stroke:none"
             id="path3341" /><path
             d="m 1228.58,1483.18 0,118.73 -76.9,0 0,-118.73 76.9,0 z m 0,140.59 c 14.39,0 26.2,-9.83 26.2,-21.86 l 0,-118.73 c 0,-12.22 -11.28,-21.87 -26.2,-21.87 l -76.9,0 c -14.93,0 -26.16,9.65 -26.16,21.87 l 0,118.73 c 0,12.03 11.77,21.86 26.16,21.86 l 76.9,0 z"
             style="fill:none;stroke:#ffffff;stroke-opacity:1;stroke-width:5.06999;stroke-linecap:butt;stroke-linejoin:miter;stroke-miterlimit:4;stroke-dasharray:none"
             id="path3343" /><path
             d="m 904.473,1463.27 0,124.35 -19.321,0 c -10.347,0 -19.914,2.84 -19.914,12.05 0,9.26 11.45,25.13 20.785,26.13 l 58.356,0 -0.039,-162.02 -39.867,-0.51"
             style="fill:#ffffff;fill-opacity:1;fill-rule:nonzero;stroke:none"
             id="path3345" /><path
             d="m 1146.48,1942.31 0,126.34 -19.64,0 c -10.51,0 -20.24,2.88 -20.24,12.25 0,9.38 11.65,25.51 21.13,26.54 l 59.32,0 -0.05,-164.6 -40.52,-0.53"
             style="fill:#ffffff;fill-opacity:1;fill-rule:nonzero;stroke:none"
             id="path3347" /><path
             d="m 868.082,953.25 0,124.37 -19.297,0 c -10.363,0 -19.93,2.83 -19.93,12.06 0,9.25 11.454,25.1 20.79,26.11 l 58.351,0 -0.047,-162.009 -39.867,-0.531"
             style="fill:#ffffff;fill-opacity:1;fill-rule:nonzero;stroke:none"
             id="path3349" /><path
             d="m 1036.17,973.16 0,118.74 -76.897,0 0,-118.74 76.897,0 z m 0,140.61 c 14.39,0 26.2,-9.82 26.2,-21.87 l 0,-118.74 c 0,-12.199 -11.28,-21.859 -26.2,-21.859 l -76.897,0 c -14.921,0 -26.164,9.66 -26.164,21.859 l 0,118.74 c 0,12.05 11.762,21.87 26.164,21.87 l 76.897,0"
             style="fill:#ffffff;fill-opacity:1;fill-rule:nonzero;stroke:none"
             id="path3351" /><path
             d="m 1036.17,973.16 0,118.74 -76.897,0 0,-118.74 76.897,0 z m 0,140.61 c 14.39,0 26.2,-9.82 26.2,-21.87 l 0,-118.74 c 0,-12.199 -11.28,-21.859 -26.2,-21.859 l -76.897,0 c -14.921,0 -26.164,9.66 -26.164,21.859 l 0,118.74 c 0,12.05 11.762,21.87 26.164,21.87 l 76.897,0 z"
             style="fill:none;stroke:#ffffff;stroke-opacity:1;stroke-width:5.06999;stroke-linecap:butt;stroke-linejoin:miter;stroke-miterlimit:4;stroke-dasharray:none"
             id="path3353" /><path
             d="m 1187.71,973.16 0,118.74 -76.9,0 0,-118.74 76.9,0 z m 0,140.61 c 14.39,0 26.19,-9.82 26.19,-21.87 l 0,-118.74 c 0,-12.199 -11.27,-21.859 -26.19,-21.859 l -76.9,0 c -14.94,0 -26.17,9.66 -26.17,21.859 l 0,118.74 c 0,12.05 11.77,21.87 26.17,21.87 l 76.9,0"
             style="fill:#ffffff;fill-opacity:1;fill-rule:nonzero;stroke:none"
             id="path3355" /><path
             d="m 1187.71,973.16 0,118.74 -76.9,0 0,-118.74 76.9,0 z m 0,140.61 c 14.39,0 26.19,-9.82 26.19,-21.87 l 0,-118.74 c 0,-12.199 -11.27,-21.859 -26.19,-21.859 l -76.9,0 c -14.94,0 -26.17,9.66 -26.17,21.859 l 0,118.74 c 0,12.05 11.77,21.87 26.17,21.87 l 76.9,0 z"
             style="fill:none;stroke:#ffffff;stroke-opacity:1;stroke-width:5.06999;stroke-linecap:butt;stroke-linejoin:miter;stroke-miterlimit:4;stroke-dasharray:none"
             id="path3357" /><path
             d="m 1270.94,484.691 51.76,0 -0.84,39.039 -90.55,-0.66 0,88.461 128.46,0.649 0,-30.559 -103.14,0 0.68,-24.34 75.23,0 c 10.33,0 11.94,-0.281 17.3,-0.281 10.7,0 10.28,-10.02 10.28,-17.012 l 0,-61.707 c 0,-6.199 0,-15.519 -6.96,-20.531 -8.27,-5.988 -8.36,-6.801 -20.28,-8.801 l -100.88,0 -0.34,50.02 38.09,0 0,-11.449"
             style="fill:#ffffff;fill-opacity:1;fill-rule:nonzero;stroke:none"
             id="path3359" /><path
             d="m 1489.92,472.07 0,119.27 -78.18,0 0,-119.27 78.18,0 z m 0,141.239 c 14.62,0 26.61,-9.887 26.61,-21.969 l 0,-119.27 c 0,-12.289 -11.46,-21.98 -26.61,-21.98 l -78.18,0 c -15.17,0 -26.61,9.691 -26.61,21.98 l 0,119.27 c 0,12.082 11.95,21.969 26.61,21.969 l 78.18,0"
             style="fill:#ffffff;fill-opacity:1;fill-rule:nonzero;stroke:none"
             id="path3361" /><path
             d="m 1489.92,472.07 0,119.27 -78.18,0 0,-119.27 78.18,0 z m 0,141.239 c 14.62,0 26.61,-9.887 26.61,-21.969 l 0,-119.27 c 0,-12.289 -11.46,-21.98 -26.61,-21.98 l -78.18,0 c -15.17,0 -26.61,9.691 -26.61,21.98 l 0,119.27 c 0,12.082 11.95,21.969 26.61,21.969 l 78.18,0 z"
             style="fill:none;stroke:#ffffff;stroke-opacity:1;stroke-width:5.06999;stroke-linecap:butt;stroke-linejoin:miter;stroke-miterlimit:4;stroke-dasharray:none"
             id="path3363" /><path
             d="M 835.078,2258.28 1083.8,2031.65 c 3.24,-2.94 3.57,-8.21 0.76,-11.76 l -18.21,-22.82 c -2.83,-3.56 -7.8,-4.05 -11.03,-1.13 l -252.886,226.95"
             style="fill:#ffffff;fill-opacity:1;fill-rule:nonzero;stroke:none"
             id="path3365" /><path
             d="m 473.586,964.551 328.125,74.579 c 4.258,1 8.769,-1.76 10.074,-6.09 l 8.332,-27.99 c 1.293,-4.35 -1.14,-8.698 -5.39,-9.691 L 483.969,917.531"
             style="fill:#ffffff;fill-opacity:1;fill-rule:nonzero;stroke:none"
             id="path3367" /><path
             d="m 662.113,524.051 282.742,182.437 c 3.665,2.403 8.84,1.364 11.555,-2.269 l 17.406,-23.438 c 2.707,-3.652 1.914,-8.562 -1.742,-10.949 L 687.969,483.449"
             style="fill:#ffffff;fill-opacity:1;fill-rule:nonzero;stroke:none"
             id="path3369" /><path
             d="m 904.781,246.77 221.699,253.128 c 2.88,3.313 8.14,3.743 11.75,0.993 l 23.18,-17.77 c 3.6,-2.75 4.19,-7.699 1.32,-10.973 L 940.805,214.82"
             style="fill:#ed1d24;fill-opacity:1;fill-rule:nonzero;stroke:none"
             id="path3371" /><path
             d="m 499.508,1635.67 325.965,-83.54 c 4.238,-1.07 6.992,-5.58 6.175,-10.04 l -5.375,-28.69 c -0.828,-4.46 -4.988,-7.23 -9.207,-6.15 L 487.27,1589.1"
             style="fill:#ffffff;fill-opacity:1;fill-rule:nonzero;stroke:none"
             id="path3373" /><path
             d="m 441.836,1327.45 244.34,-12.61"
             style="fill:none;stroke:#ffffff;stroke-opacity:1;stroke-width:40.5599;stroke-linecap:butt;stroke-linejoin:miter;stroke-miterlimit:10;stroke-dasharray:none"
             id="path3375" /><path
             d="M 569.488,681.391 792.32,782.398"
             style="fill:none;stroke:#ffffff;stroke-opacity:1;stroke-width:40.5599;stroke-linecap:butt;stroke-linejoin:miter;stroke-miterlimit:10;stroke-dasharray:none"
             id="path3377" /><path
             d="M 778.949,374.301 962.875,533.109"
             style="fill:none;stroke:#ffffff;stroke-opacity:1;stroke-width:40.5599;stroke-linecap:butt;stroke-linejoin:miter;stroke-miterlimit:10;stroke-dasharray:none"
             id="path3379" /><path
             d="M 844.934,302.172 1021.38,471.66"
             style="fill:none;stroke:#ffffff;stroke-opacity:1;stroke-width:40.5599;stroke-linecap:butt;stroke-linejoin:miter;stroke-miterlimit:10;stroke-dasharray:none"
             id="path3381" /></g></g></g></g></svg>