<?xml version="1.0" encoding="UTF-8" standalone="no"?>
<!-- Created with Inkscape (http://www.inkscape.org/) -->

<svg
   xmlns:dc="http://purl.org/dc/elements/1.1/"
   xmlns:cc="http://creativecommons.org/ns#"
   xmlns:rdf="http://www.w3.org/1999/02/22-rdf-syntax-ns#"
   xmlns:svg="http://www.w3.org/2000/svg"
   xmlns="http://www.w3.org/2000/svg"
   xmlns:sodipodi="http://sodipodi.sourceforge.net/DTD/sodipodi-0.dtd"
   xmlns:inkscape="http://www.inkscape.org/namespaces/inkscape"
   id="svg2837"
   version="1.1"
   inkscape:version="0.47 r22583"
   width="765"
   height="990"
   xml:space="preserve"
   sodipodi:docname="gauge-fuel.eps"><metadata
     id="metadata2843"><rdf:RDF><cc:Work
         rdf:about=""><dc:format>image/svg+xml</dc:format><dc:type
           rdf:resource="http://purl.org/dc/dcmitype/StillImage" /><dc:title></dc:title></cc:Work></rdf:RDF></metadata><defs
     id="defs2841"><inkscape:perspective
       sodipodi:type="inkscape:persp3d"
       inkscape:vp_x="0 : 0.5 : 1"
       inkscape:vp_y="0 : 1000 : 0"
       inkscape:vp_z="1 : 0.5 : 1"
       inkscape:persp3d-origin="0.5 : 0.33333333 : 1"
       id="perspective2845" /><clipPath
       clipPathUnits="userSpaceOnUse"
       id="clipPath2855"><path
         d="M 0,2536.03 0,0 l 2536.02,0 0,2536.03 -2536.02,0 z"
         id="path2857" /></clipPath></defs><sodipodi:namedview
     pagecolor="#ffffff"
     bordercolor="#666666"
     borderopacity="1"
     objecttolerance="10"
     gridtolerance="10"
     guidetolerance="10"
     inkscape:pageopacity="0"
     inkscape:pageshadow="2"
     inkscape:window-width="640"
     inkscape:window-height="481"
     id="namedview2839"
     showgrid="false"
     inkscape:zoom="0.23838384"
     inkscape:cx="382.5"
     inkscape:cy="495"
     inkscape:window-x="0"
     inkscape:window-y="0"
     inkscape:window-maximized="0"
     inkscape:current-layer="g2847" /><g
     id="g2847"
     inkscape:groupmode="layer"
     inkscape:label="ink_ext_XXXXXX"
     transform="matrix(1.25,0,0,-1.25,0,990)"><g
       id="g2849"
       transform="scale(0.1,0.1)"><g
         id="g2851"><g
           id="g2853"
           clip-path="url(#clipPath2855)"><path
             d="M 2536.02,1268.01 C 2536.02,567.738 1968.31,0 1268,0 567.715,0 0,567.738 0,1268.01 c 0,700.3 567.715,1268.02 1268,1268.02 700.31,0 1268.02,-567.72 1268.02,-1268.02"
             style="fill:#100f0d;fill-opacity:1;fill-rule:nonzero;stroke:none"
             id="path2859" /><path
             d="m 1692.26,1226.49 75.9375,0 0,19.8711 -75.9375,0 0,-19.8711 z"
             style="fill:#ffffff;fill-opacity:1;fill-rule:nonzero;stroke:none"
             id="path2861" /><path
             d="m 1720.3,1201.72 19.8594,0 0,70.75 -19.8594,0 0,-70.75 z"
             style="fill:#ffffff;fill-opacity:1;fill-rule:nonzero;stroke:none"
             id="path2863" /><path
             d="m 954.008,280.609 c 0,0 -977.6174,590.25 -350.91,1703.331 44.601,79.22 106.535,154.87 195.078,229.37 l 166.301,-193.77 c 0,0 -798.504,-719.45 -17.465,-1718.142"
             style="fill:#ffffff;fill-opacity:1;fill-rule:nonzero;stroke:none"
             id="path2865" /><path
             d="m 1046.67,1980.74 c 5.01,1.61 8.16,0.59 13.01,-2.24 7.52,-4.7 9.87,-11.29 7.04,-19.78 0,0 -68.111,-42.39 -71.189,-111.03 l 52.219,0 0,38.74 c 0,7.28 3.28,12.45 9.83,15.52 6.55,3.07 12.62,2.39 18.2,-2.06 4.2,-3.4 6.3,-7.88 6.3,-13.46 l 0,-38.74 31.42,0 c 5.58,0 9.79,-1.8 12.61,-5.39 2.84,-3.6 4.25,-7.54 4.25,-11.84 0,-4.28 -1.41,-8.2 -4.25,-11.76 -2.82,-3.56 -7.03,-5.34 -12.61,-5.34 l -31.42,0 c 0,-1.05 0,-5.86 0,-14.43 0,-8.57 0,-12.9 0,-12.98 0,-7.03 -2.99,-12.05 -8.97,-15.05 -5.82,-2.75 -11.5,-2.58 -17.05,0.49 -5.53,3.07 -8.27,7.93 -8.18,14.56 0,0.56 -0.03,5.02 -0.07,13.34 -0.04,8.33 -0.06,13.02 -0.06,14.07 l -75.746,0 c -5.82,0 -10.418,2.35 -13.774,7.03 -3.351,4.7 -4.183,9.83 -2.484,15.41 0,0 6.371,95.43 86.874,142.25"
             style="fill:#ffffff;fill-opacity:1;fill-rule:nonzero;stroke:none"
             id="path2867" /><path
             d="m 1247.2,1995.72 c 2.42,4.26 5.35,6.77 8.79,7.5 3.43,0.77 5.36,1.16 5.76,1.16 5.82,0 10.63,-2.48 14.44,-7.35 3.81,-4.93 4,-10.69 0.6,-17.32 L 1162.28,1770.1 c -0.97,-1.82 -2.7,-3.7 -5.21,-5.64 -2.51,-1.94 -5.82,-2.89 -9.95,-2.89 -5.82,0 -10.45,2.46 -13.89,7.34 -3.44,4.91 -3.78,10.79 -1.03,17.69 l 115,209.12"
             style="fill:#ffffff;fill-opacity:1;fill-rule:nonzero;stroke:none"
             id="path2869" /><path
             d="m 1170.27,281.852 0,121.75 -79.82,0 0,-121.75 79.82,0 z m 0,144.179 c 14.92,0 27.15,-10.109 27.15,-22.429 l 0,-121.75 c 0,-12.532 -11.71,-22.442 -27.15,-22.442 l -79.82,0 c -15.48,0 -27.17,9.91 -27.17,22.442 l 0,121.75 c 0,12.32 12.21,22.429 27.17,22.429 l 79.82,0"
             style="fill:#ffffff;fill-opacity:1;fill-rule:nonzero;stroke:none"
             id="path2871" /><path
             d="m 1170.27,281.852 0,121.75 -79.82,0 0,-121.75 79.82,0 z m 0,144.179 c 14.92,0 27.15,-10.109 27.15,-22.429 l 0,-121.75 c 0,-12.532 -11.71,-22.442 -27.15,-22.442 l -79.82,0 c -15.48,0 -27.17,9.91 -27.17,22.442 l 0,121.75 c 0,12.32 12.21,22.429 27.17,22.429 l 79.82,0 z"
             style="fill:none;stroke:#ffffff;stroke-opacity:1;stroke-width:5.17554;stroke-linecap:butt;stroke-linejoin:miter;stroke-miterlimit:4;stroke-dasharray:none"
             id="path2873" /><path
             d="m 1866.68,1833.3 c 0,-5.3 -5.76,-9.47 -13.12,-9.47 l -137.22,0 c -7.38,0 -13.1,4.17 -13.1,9.47 l 0,84.76 c 0,5.36 5.73,9.49 13.1,9.49 l 137.22,0 c 7.36,0 13.12,-4.13 13.12,-9.49 l 0,-84.76 z m 134.94,11.38 c 0,10.5 -5.26,19.02 -16.07,26.19 l -68.97,45.12 c -1.18,0 -2.91,-0.54 -4.83,-1.33 -5.69,-2.47 -13.1,-7.28 -13.1,-7.28 0,-3.15 21.94,-28.35 21.94,-28.35 l 15.83,-22.86 c 5.94,-13.17 16.69,-24.41 37.29,-24.41 m -86.4,-17.24 c 0,0 0.43,84.28 0.43,102.18 0,2.09 0,3.3 0,3.3 0,15.23 -18.92,24.95 -42.13,24.95 l -121.46,0 c -23.22,0 -42.13,-9.72 -42.13,-24.95 l 0,-333.1 205.72,-0.12 0.21,209.59"
             style="fill:#ffffff;fill-opacity:1;fill-rule:nonzero;stroke:none"
             id="path2875" /><path
             d="m 1653.54,1574.72 265.109,0 0,33.5312 -265.109,0 0,-33.5312 z"
             style="fill:#ffffff;fill-opacity:1;fill-rule:nonzero;stroke:none"
             id="path2877" /><path
             d="m 1878.34,1819.93 32.9,0 c 0,0 19.19,6.51 19.19,-37.57 0,-44.08 -10.95,-120.83 -6.86,-132.26 4.11,-11.43 4.11,-31.04 31.52,-31.04 27.43,0 57.57,31.06 42.49,63.71 -15.06,32.65 -28.78,51.5 -23.29,73.91 5.47,22.42 37.7,72.32 7.54,105"
             style="fill:none;stroke:#ffffff;stroke-opacity:1;stroke-width:18.7299;stroke-linecap:butt;stroke-linejoin:miter;stroke-miterlimit:10;stroke-dasharray:none"
             id="path2879" /><path
             d="m 1336.33,1980.74 c 5.01,1.61 8.17,0.59 13.02,-2.24 7.52,-4.7 9.86,-11.29 7.03,-19.78 0,0 -68.1,-42.39 -71.18,-111.03 l 52.22,0 0,38.74 c 0,7.28 3.28,12.45 9.82,15.52 6.56,3.07 12.62,2.39 18.2,-2.06 4.2,-3.4 6.31,-7.88 6.31,-13.46 l 0,-38.74 31.42,0 c 5.58,0 9.78,-1.8 12.61,-5.39 2.84,-3.6 4.25,-7.54 4.25,-11.84 0,-4.28 -1.41,-8.2 -4.25,-11.76 -2.83,-3.56 -7.03,-5.34 -12.61,-5.34 l -31.42,0 c 0,-1.05 0,-5.86 0,-14.43 0,-8.57 0,-12.9 0,-12.98 0,-7.03 -2.99,-12.05 -8.97,-15.05 -5.83,-2.75 -11.51,-2.58 -17.04,0.49 -5.55,3.07 -8.28,7.93 -8.2,14.56 0,0.56 -0.03,5.02 -0.06,13.34 -0.04,8.33 -0.06,13.02 -0.06,14.07 l -75.75,0 c -5.82,0 -10.42,2.35 -13.77,7.03 -3.35,4.7 -4.18,9.83 -2.48,15.41 0,0 6.37,95.43 86.86,142.25"
             style="fill:#ffffff;fill-opacity:1;fill-rule:nonzero;stroke:none"
             id="path2881" /></g></g></g></g></svg>